<svg id="Camada_1" data-name="Camada 1" xmlns="http://www.w3.org/2000/svg" viewBox="0 0 120 96.33"><defs><style>.cls-1{fill:#0e532c;}</style></defs><title>menu-procurar</title><path class="cls-1" d="M42.42,41.73H17.75a8.68,8.68,0,0,0,0,17.35H59.6a29.43,29.43,0,0,1-8.78-5.24A29.13,29.13,0,0,1,42.42,41.73Z"/><path class="cls-1" d="M107.14,51.08c0-.22,0-.45,0-.67a8.68,8.68,0,0,0-8.68-8.68h-.83c-.09.25-.17.51-.27.76Z"/><path class="cls-1" d="M80.5,59.09h6.64l-2.32-2A29.19,29.19,0,0,1,80.5,59.09Z"/><path class="cls-1" d="M99.1,26.61a8.67,8.67,0,0,0-.61-17.32H89.18l.09.07A29.3,29.3,0,0,1,99.1,26.61Z"/><path class="cls-1" d="M50.91,9.28H17.75a8.68,8.68,0,1,0,0,17.35H41A29.51,29.51,0,0,1,50.91,9.28Z"/><path class="cls-1" d="M98.49,74.18H17.75a8.68,8.68,0,1,0,0,17.35H98.49a8.68,8.68,0,1,0,0-17.35Z"/><path class="cls-1" d="M107.85,57,92.5,43.53A25.42,25.42,0,1,0,85.17,52l15.3,13.48C106.09,70.39,113.43,61.95,107.85,57ZM81.92,41.87a15.7,15.7,0,1,1-1.6-22.14A15.66,15.66,0,0,1,81.92,41.87Z"/></svg>